<?xml version="1.0" encoding="UTF-8"?>
<svg id="Layer_2" data-name="Layer 2" xmlns="http://www.w3.org/2000/svg" viewBox="0 0 245.47 306.65">
  <defs>
    <style>
      .cls-1 {
        fill: #03896a;
      }

      .cls-2 {
        fill: #3fb9e5;
      }

      .cls-3 {
        fill: #a92174;
      }

      .cls-4 {
        fill: #322d79;
      }

      .cls-5 {
        fill: #d31c62;
      }

      .cls-6 {
        fill: #232f63;
      }

      .cls-7 {
        fill: #9c237a;
      }

      .cls-8 {
        fill: #86246f;
      }

      .cls-9 {
        fill: #3e8dcb;
      }

      .cls-10 {
        fill: #231f55;
      }

      .cls-11 {
        fill: #cca92c;
      }

      .cls-12 {
        fill: #e11d36;
      }

      .cls-13 {
        fill: #d83b27;
      }

      .cls-14 {
        fill: #089778;
      }

      .cls-15 {
        fill: #30aacb;
      }

      .cls-16 {
        fill: #bb972f;
      }

      .cls-17 {
        fill: #339872;
      }

      .cls-18 {
        fill: #52a947;
      }

      .cls-19 {
        fill: #e21662;
      }

      .cls-20 {
        fill: #3dad84;
      }

      .cls-21 {
        fill: #eb6730;
      }

      .cls-22 {
        fill: #374290;
      }

      .cls-23 {
        fill: #75b243;
      }

      .cls-24 {
        fill: #e54725;
      }

      .cls-25 {
        fill: #d9562a;
      }

      .cls-26 {
        fill: #6ca442;
      }

      .cls-27 {
        fill: #b71e78;
      }

      .cls-28 {
        fill: #cc2037;
      }

      .cls-29 {
        fill: #295d9b;
      }

      .cls-30 {
        fill: #2f63ad;
      }

      .cls-31 {
        fill: #2978ad;
      }
    </style>
  </defs>
  <g id="Layer_3" data-name="Layer 3">
    <polygon class="cls-4" points="45.6 252.81 0 306.65 65.76 306.65 45.6 252.81"/>
    <polygon class="cls-18" points="108.96 286.08 90.29 306.65 150.17 306.65 108.96 286.08"/>
    <polygon class="cls-12" points="170.35 306.65 230.86 306.65 202.16 291.24 170.35 306.65"/>
    <g>
      <polygon class="cls-22" points="242.76 92.8 238.59 53.53 218.34 74.58 242.76 92.8"/>
      <polygon class="cls-6" points="242.76 92.8 218.34 74.58 209.91 83.35 244.32 107.44 242.76 92.8"/>
      <polygon class="cls-30" points="209.34 67.87 218.34 74.58 238.59 53.53 205.32 11.08 208.93 67.87 209.34 67.87"/>
      <polygon class="cls-29" points="209.34 67.87 208.93 67.87 209.91 83.35 218.34 74.58 209.34 67.87"/>
      <polygon class="cls-31" points="137.65 67.87 136.34 68.36 141.08 83.35 209.91 83.35 208.93 67.87 137.65 67.87"/>
      <polygon class="cls-9" points="137.65 67.87 208.93 67.87 205.32 11.08 114.7 0 136.34 68.36 137.65 67.87"/>
      <polygon class="cls-2" points="136.34 68.36 114.7 0 99.51 82.33 136.34 68.36"/>
      <polygon class="cls-15" points="99.51 82.33 96.36 99.41 141.08 83.35 136.34 68.36 99.51 82.33"/>
      <polygon class="cls-20" points="99.51 82.33 114.7 0 45.89 24.85 87.8 86.77 99.51 82.33"/>
      <polygon class="cls-17" points="87.8 86.77 96.36 99.41 99.51 82.33 87.8 86.77"/>
      <polygon class="cls-1" points="87.75 86.79 75.8 107.13 82.59 125.79 96.36 99.41 87.8 86.77 87.75 86.79"/>
      <polygon class="cls-14" points="87.75 86.79 87.8 86.77 45.89 24.85 75.8 107.13 87.75 86.79"/>
      <polygon class="cls-26" points="68.63 119.34 82.59 125.79 75.8 107.13 68.63 119.34"/>
      <polygon class="cls-23" points="75.8 107.13 45.89 24.85 5.74 90.24 68.63 119.34 75.8 107.13"/>
      <polygon class="cls-16" points="62.71 129.42 82.59 125.79 68.63 119.34 62.71 129.42"/>
      <polygon class="cls-11" points="5.74 90.24 .86 140.7 62.71 129.42 68.63 119.34 5.74 90.24"/>
    </g>
    <g>
      <polygon class="cls-21" points="81.06 159.82 1.15 151.03 43.59 228.01 81.13 159.92 81.06 159.82"/>
      <polygon class="cls-25" points="81.13 159.92 86.03 151.03 1.15 151.03 81.06 159.82 81.13 159.92"/>
      <polygon class="cls-24" points="99.03 184.68 81.13 159.92 43.59 228.01 99.03 184.68"/>
      <polygon class="cls-13" points="99.03 184.67 111.26 175.12 86.03 151.03 81.13 159.92 99.03 184.67"/>
      <polygon class="cls-5" points="142.6 200.73 150.26 184.29 111.26 175.12 111.26 189.18 142.6 200.73"/>
      <polygon class="cls-19" points="111.26 189.18 111.26 268.03 142.6 200.73 111.26 189.18"/>
      <polygon class="cls-28" points="111.26 189.18 111.26 175.12 99.03 184.68 111.26 189.18"/>
      <polygon class="cls-12" points="99.03 184.68 43.59 228.01 111.26 268.03 111.26 189.18 99.03 184.68"/>
      <polygon class="cls-27" points="152.56 202.64 142.62 200.73 142.6 200.73 111.26 268.03 165.17 292.11 152.79 202.64 152.56 202.64"/>
      <polygon class="cls-3" points="142.62 200.73 152.56 202.64 152.79 202.64 150.26 184.29 142.6 200.73 142.62 200.73"/>
      <polygon class="cls-8" points="213.73 200.73 214.12 200.51 215.64 184.29 150.26 184.29 152.79 202.64 213.73 200.73"/>
      <polygon class="cls-7" points="213.73 200.73 152.79 202.64 165.17 292.11 207.61 270.32 214.12 200.51 213.73 200.73"/>
      <polygon class="cls-10" points="241.65 184.98 245.47 175.4 215.64 184.29 214.12 200.51 241.65 184.98"/>
      <polygon class="cls-4" points="214.12 200.51 207.61 270.32 241.65 184.98 214.12 200.51"/>
    </g>
  </g>
</svg>